<svg id="Capa_1" enable-background="new 0 0 512 512" height="512" viewBox="0 0 512 512" width="512" xmlns="http://www.w3.org/2000/svg"><g id="XMLID_276_"><path id="XMLID_283_" d="m44 204v104c0 5.523 4.477 10 10 10 14.336 0 26 11.664 26 26 0 5.523 4.477 10 10 10h332c5.523 0 10-4.477 10-10 0-14.336 11.664-26 26-26 5.523 0 10-4.477 10-10v-104c0-5.523-4.477-10-10-10-14.336 0-26-11.664-26-26 0-5.523-4.477-10-10-10h-332c-5.523 0-10 4.477-10 10 0 14.336-11.664 26-26 26-5.523 0-10 4.477-10 10zm20 8.905c17.351-3.862 31.043-17.555 34.905-34.905h314.189c3.862 17.351 17.555 31.043 34.905 34.905v86.189c-17.351 3.862-31.043 17.555-34.905 34.905h-314.189c-3.862-17.35-17.554-31.042-34.905-34.904z"/><path id="XMLID_414_" d="m502 114h-492c-5.523 0-10 4.477-10 10v264c0 5.523 4.477 10 10 10h492c5.523 0 10-4.477 10-10v-264c0-5.523-4.477-10-10-10zm-10 264h-472v-244h472z"/><circle id="XMLID_591_" cx="256" cy="256" r="56"/><circle id="XMLID_669_" cx="132" cy="256" r="22"/><circle id="XMLID_670_" cx="380" cy="256" r="22"/><path id="XMLID_675_" d="m50 174c2.63 0 5.21-1.07 7.07-2.93s2.93-4.44 2.93-7.07-1.07-5.21-2.93-7.07-4.44-2.93-7.07-2.93-5.21 1.07-7.07 2.93-2.93 4.44-2.93 7.07 1.07 5.21 2.93 7.07 4.44 2.93 7.07 2.93z"/><path id="XMLID_676_" d="m462 174c2.63 0 5.21-1.07 7.07-2.93s2.93-4.44 2.93-7.07-1.07-5.21-2.93-7.07-4.44-2.93-7.07-2.93-5.21 1.07-7.07 2.93-2.93 4.44-2.93 7.07 1.07 5.21 2.93 7.07 4.44 2.93 7.07 2.93z"/><path id="XMLID_679_" d="m462 338c-2.63 0-5.21 1.07-7.07 2.93s-2.93 4.44-2.93 7.07 1.07 5.21 2.93 7.07 4.44 2.93 7.07 2.93 5.21-1.07 7.07-2.93 2.93-4.44 2.93-7.07-1.07-5.21-2.93-7.07-4.44-2.93-7.07-2.93z"/><path id="XMLID_776_" d="m50 358c2.63 0 5.21-1.07 7.07-2.93s2.93-4.44 2.93-7.07-1.07-5.21-2.93-7.07-4.44-2.93-7.07-2.93-5.21 1.07-7.07 2.93-2.93 4.44-2.93 7.07 1.07 5.21 2.93 7.07 4.44 2.93 7.07 2.93z"/></g></svg>